<svg width="120" height="120" viewBox="0 0 120 120" fill="none" xmlns="http://www.w3.org/2000/svg">
<path d="M87.6149 119.964H32.3877C23.799 119.959 15.5634 116.545 9.4905 110.472C3.41759 104.398 0.00409245 96.1625 0 87.5737V32.3878C0.00477449 23.7996 3.41853 15.5643 9.49137 9.49145C15.5642 3.41861 23.7994 0.00477449 32.3877 0H87.6123C96.2006 0.00477449 104.436 3.41861 110.509 9.49145C116.581 15.5643 119.995 23.7996 120 32.3878V87.6124C119.995 96.1969 116.581 104.428 110.507 110.495C104.434 116.562 96.1994 119.968 87.6149 119.964Z" fill="#7AC52D"/>
<path opacity="0.78" d="M17.4942 87.4914V54.733C17.494 53.9004 17.7549 53.0885 18.2403 52.412C18.7256 51.7354 19.411 51.2282 20.1998 50.9616L34.4256 46.1656V63.5913C34.4262 64.6508 34.7479 65.6853 35.348 66.5584C35.9482 67.4315 36.7987 68.1024 37.7876 68.4826C42.6789 70.3284 51.3184 73.608 53.6533 74.3854C56.2766 75.2453 55.9496 78.2469 55.6613 79.4285C55.4965 79.5109 55.3755 79.5934 55.2107 79.6861L22.8231 91.2886C22.22 91.5034 21.5741 91.5699 20.9399 91.4825C20.3057 91.3952 19.7018 91.1564 19.1792 90.7866C18.6567 90.4168 18.2309 89.9266 17.9376 89.3576C17.6443 88.7885 17.4922 88.1573 17.4942 87.5172V87.4914Z" fill="white"/>
<path opacity="0.53" d="M34.4283 46.1657V33.6621C34.416 32.8228 34.6091 31.9932 34.9909 31.2456C35.3726 30.4979 35.9314 29.8549 36.6184 29.3726C37.3055 28.8904 38.1002 28.5835 38.9331 28.4786C39.7659 28.3737 40.6118 28.474 41.397 28.7708L55.7463 33.9376L56.0037 34.4292C56.1918 34.9326 56.2784 35.4682 56.2584 36.0052C56.2385 36.5422 56.1124 37.0699 55.8874 37.5579C55.6624 38.0459 55.3431 38.4846 54.9477 38.8485C54.5523 39.2125 54.0888 39.4944 53.5839 39.6783C53.5427 39.6783 53.5015 39.7195 53.4191 39.7195L34.4283 46.1657Z" fill="white"/>
<path d="M55.738 33.9476L55.9955 34.4393C56.1836 34.9426 56.2702 35.4782 56.2502 36.0152C56.2302 36.5522 56.1041 37.0799 55.8791 37.5679C55.6542 38.0559 55.3348 38.4946 54.9395 38.8586C54.5441 39.2225 54.0805 39.5045 53.5756 39.6883C53.5344 39.6883 53.4932 39.7295 53.4109 39.7295L34.4277 46.1654V63.5885C34.4284 64.648 34.75 65.6823 35.3501 66.5555C35.9503 67.4286 36.8009 68.0996 37.7898 68.4798C42.6811 70.3256 51.3205 73.6052 53.6554 74.3826C56.2787 75.2425 55.9517 78.2441 55.6634 79.4257C56.7088 78.8265 57.5892 77.9774 58.2258 76.9545C58.8624 75.9315 59.2353 74.7665 59.3112 73.564V39.4541C59.2968 37.9064 58.713 36.4181 57.6714 35.2733C57.1475 34.6771 56.4829 34.2215 55.738 33.9476Z" fill="white"/>
<path opacity="0.78" d="M102.493 32.4704V65.2288C102.501 66.0634 102.243 66.879 101.757 67.5572C101.27 68.2354 100.58 68.7408 99.787 69.0002L85.5612 73.7962V56.373C85.5605 55.3135 85.2389 54.2792 84.6388 53.4061C84.0386 52.5329 83.188 51.8621 82.1991 51.4819C77.3619 49.6361 68.6684 46.3563 66.3335 45.5789C63.7103 44.719 64.0372 41.7174 64.3255 40.5358C64.4903 40.4534 64.6138 40.3711 64.776 40.2784L97.1638 28.6758C97.6563 28.4975 98.1792 28.4188 98.7024 28.4441C99.2256 28.4694 99.7386 28.5983 100.212 28.8234C100.684 29.0485 101.108 29.3652 101.458 29.7553C101.807 30.1454 102.076 30.601 102.248 31.0957C102.414 31.5347 102.497 32.0009 102.493 32.4704Z" fill="white"/>
<path d="M60.6316 51.0856V79.5808C60.5904 74.5789 60.6316 58.9579 60.6316 51.0856Z" fill="white"/>
<path opacity="0.53" d="M85.5438 73.7983V86.3019C85.5561 87.1412 85.3629 87.971 84.9812 88.7186C84.5994 89.4662 84.0407 90.1091 83.3536 90.5914C82.6665 91.0736 81.8719 91.3805 81.0391 91.4854C80.2062 91.5903 79.3603 91.49 78.5751 91.1932L64.2669 86.0264L64.0095 85.5348C63.8214 85.0314 63.7348 84.4958 63.7548 83.9588C63.7747 83.4218 63.9008 82.8941 64.1258 82.4061C64.3508 81.9181 64.6702 81.4794 65.0656 81.1155C65.4609 80.7516 65.9244 80.4696 66.4293 80.2857C66.4705 80.2857 66.5117 80.2445 66.5941 80.2445L85.5438 73.7983Z" fill="white"/>
<path d="M64.2685 86.0164L64.0111 85.5247C63.823 85.0214 63.7364 84.4858 63.7564 83.9488C63.7763 83.4118 63.9024 82.8841 64.1274 82.3961C64.3524 81.9081 64.6718 81.4694 65.0672 81.1055C65.4625 80.7415 65.926 80.4595 66.4309 80.2757C66.4721 80.2757 66.5133 80.2345 66.5957 80.2345L85.5789 73.7987V56.3729C85.5782 55.3134 85.2566 54.279 84.6564 53.4059C84.0563 52.5328 83.2057 51.862 82.2168 51.4818C77.3796 49.636 68.6861 46.3562 66.3511 45.5787C63.7279 44.7189 64.0548 41.7173 64.3432 40.5356C63.3013 41.1389 62.4237 41.989 61.7876 43.0111C61.1515 44.0333 60.7764 45.1961 60.6953 46.3973V80.4661C60.6908 82.0174 61.2771 83.5124 62.3352 84.6469C62.849 85.2585 63.5137 85.7253 64.2634 86.001L64.2685 86.0164Z" fill="white"/>
</svg>
